<svg width="74" height="78" viewBox="0 0 74 78" fill="none" xmlns="http://www.w3.org/2000/svg">
<g filter="url(#filter0_f_2763_3093)">
<ellipse cx="36.9565" cy="67.058" rx="26.9565" ry="0.869565" fill="#040404"/>
</g>
<path d="M42.2112 39.9432L52.7008 36.661C53.603 36.2773 54.6297 36.661 55.0186 37.4958C55.2104 37.9469 55.2104 38.398 55.0808 38.8491V38.9114C54.8889 39.2951 54.6297 39.6166 54.1786 39.8136L39.8934 47.9854C39.2504 48.3069 38.54 48.3691 37.8971 48.1773L28.1178 44.7032L27.6667 44.5114C27.283 44.3817 26.8319 44.3195 26.443 44.3195H24.3223V34.1514H27.7963C29.02 34.1514 30.1763 34.3432 31.3326 34.7943L36.2223 36.5936H41.8845C42.9163 36.5936 43.8134 37.4284 43.7512 38.4603C43.7512 38.9114 43.5593 39.2951 43.2378 39.5543C42.9163 39.8758 42.4652 40.0677 42.0141 40.0677H36.2897H35.9682" fill="#F7C997"/>
<path d="M24.198 32.1553V46.0516C24.198 46.6946 23.6846 47.2753 22.9743 47.2753H18.7276C18.0846 47.2753 17.5039 46.762 17.5039 46.0516V32.1553C17.5039 31.5124 18.0172 30.9316 18.7276 30.9316H22.9743C23.6172 30.9368 24.198 31.5124 24.198 32.1553Z" fill="#0093F7"/>
<path d="M47.2935 31.4499C45.5565 32.9277 42.7254 33.2492 39.4432 33.2492C34.1646 33.2492 29.918 32.4766 29.918 27.2033C29.918 23.0862 32.5572 16.4596 36.2232 13.8203H42.6009C43.695 14.5929 44.7217 15.7492 45.5617 17.0351C42.9224 18.2588 41.1232 20.8981 41.1232 23.9833C41.1854 27.6544 43.8195 30.7396 47.2935 31.4499Z" fill="#47D681"/>
<path d="M34.4903 23.3404C34.0392 24.6938 33.7852 26.1093 33.7852 27.136C33.7852 27.9708 33.7852 28.7434 35.6518 29.1323M42.6622 13.8204C44.337 12.0212 44.4615 9.38193 44.4615 9.38193C44.4615 9.38193 42.5948 9.44415 40.9252 10.5382C40.4118 9.06045 39.4474 8.09082 39.4474 8.09082C39.4474 8.09082 38.5452 9.12267 37.9696 10.5382C36.2948 9.50638 34.4333 9.38193 34.4333 9.38193C34.4333 9.38193 34.5629 12.0212 36.2326 13.8204H42.6622Z" fill="#47D681"/>
<path d="M56.4967 23.9837C56.4967 28.2304 53.0849 31.6422 48.8382 31.6422C44.5915 31.6422 41.1797 28.2304 41.1797 23.9837C41.1797 19.737 44.5915 16.3252 48.8382 16.3252C53.0849 16.3252 56.4967 19.737 56.4967 23.9837Z" fill="#FEBB50"/>
<path d="M18.728 47.9229H22.9747C24.0013 47.9229 24.8413 47.0881 24.8413 46.0562V44.9622H26.4487C26.7858 44.9622 27.1695 45.0244 27.4184 45.1022L27.9058 45.3096L37.7161 48.794C38.0169 48.8822 38.328 48.9288 38.6391 48.9288C39.168 48.9288 39.7021 48.7992 40.2154 48.5451L54.4695 40.3888C55.1539 40.0829 55.4754 39.5644 55.6569 39.2014C55.6984 39.1185 55.7191 39.0303 55.7243 38.937C55.8747 38.3459 55.8384 37.7755 55.5998 37.2311C55.071 36.0851 53.6761 35.5666 52.4784 36.0592L44.3947 38.5896C44.3947 38.5636 44.3947 38.5325 44.3947 38.5066C44.4361 37.8636 44.208 37.2466 43.7569 36.7644C43.2747 36.2511 42.5954 35.9555 41.8902 35.9555H36.3421L31.5717 34.1977C30.3843 33.7362 29.1502 33.5081 27.8021 33.5081H24.8413V32.1548C24.8413 31.1592 23.9702 30.2881 22.9747 30.2881H18.728C17.7013 30.2881 16.8613 31.1229 16.8613 32.1548V46.051C16.8613 47.0829 17.6961 47.9229 18.728 47.9229ZM24.971 34.794H27.8021C28.9895 34.794 30.068 34.991 31.1206 35.3955L36.0102 37.1948C36.0828 37.2207 36.1554 37.2362 36.2332 37.2362H41.8954C42.248 37.2362 42.585 37.3814 42.8236 37.6355C43.031 37.8585 43.1347 38.1333 43.1139 38.4548C43.1139 38.6985 43.0206 38.9007 42.8391 39.0459C42.8287 39.0562 42.8184 39.0666 42.808 39.0718L42.0198 39.3155C41.9473 39.3362 41.885 39.3725 41.828 39.414H35.9687C35.611 39.414 35.3258 39.7044 35.3258 40.057C35.3258 40.4096 35.6161 40.6999 35.9687 40.6999H42.0147C42.5228 40.6999 43.0258 40.5288 43.4406 40.2177L52.888 37.2622C52.9087 37.257 52.9295 37.2466 52.9502 37.2414C53.5258 36.9977 54.1843 37.2259 54.4228 37.7392C54.5473 38.0244 54.5576 38.3199 54.4591 38.657C54.4539 38.6777 54.4487 38.6985 54.4436 38.7192C54.3036 38.9681 54.1428 39.1133 53.9198 39.2066C53.8991 39.217 53.8732 39.2273 53.8524 39.2377L39.6087 47.4096C39.1161 47.6533 38.5769 47.7103 38.1154 47.5703L28.3724 44.1118L27.8747 43.8992C27.4443 43.754 26.9258 43.671 26.4487 43.671H24.971V34.794ZM18.1473 32.1548C18.1473 31.8748 18.3702 31.574 18.728 31.574H22.9747C23.2598 31.574 23.5554 31.8644 23.5554 32.1548V46.051C23.5554 46.331 23.3324 46.6318 22.9747 46.6318H18.728C18.448 46.6318 18.1473 46.4088 18.1473 46.051V32.1548Z" fill="black"/>
<path d="M29.2793 27.2028C29.2793 33.0828 34.1637 33.8969 39.4474 33.8969C42.263 33.8969 45.3741 33.6688 47.4119 32.1547C47.8786 32.2377 48.3556 32.2843 48.843 32.2843C53.4215 32.2843 57.1445 28.5614 57.1445 23.9828C57.1445 19.4043 53.4215 15.6814 48.843 15.6814C47.7697 15.6814 46.7482 15.894 45.8045 16.2673C45.1097 15.2717 44.3474 14.4162 43.5489 13.7525C44.9697 11.8599 45.1045 9.51617 45.1097 9.40728C45.12 9.2258 45.0526 9.05469 44.923 8.92506C44.7934 8.79543 44.6067 8.72284 44.4408 8.73321C44.3682 8.73321 42.8334 8.80062 41.2363 9.60951C40.6711 8.41691 39.9349 7.67025 39.8986 7.63395C39.7741 7.50951 39.5926 7.43173 39.4215 7.44728C39.2452 7.45247 39.0741 7.53025 38.96 7.66506C38.9289 7.70136 38.2445 8.48432 37.6689 9.63543C36.0823 8.85247 34.5423 8.7384 34.4697 8.73321C34.283 8.72284 34.1067 8.78506 33.9771 8.91469C33.8474 9.04432 33.7749 9.22062 33.7852 9.40728C33.7904 9.51617 33.9252 11.8288 35.32 13.7162C31.7319 16.7184 29.2793 23.0651 29.2793 27.2028ZM55.8534 23.9828C55.8534 27.851 52.706 30.9984 48.8378 30.9984C48.4126 30.9984 47.9978 30.9517 47.5986 30.8791C47.5467 30.848 47.4845 30.8273 47.4223 30.8169C45.4674 30.4177 43.8237 29.1991 42.823 27.5658C42.7815 27.4984 42.74 27.431 42.6986 27.3636C42.6778 27.3273 42.6623 27.291 42.6415 27.2547C42.123 26.2747 41.8274 25.1651 41.8274 23.9828C41.8274 20.1147 44.9749 16.9673 48.843 16.9673C52.7112 16.9673 55.8534 20.1199 55.8534 23.9828ZM44.6171 16.8014C42.0452 18.2791 40.4741 20.9702 40.4741 23.9984C40.5 25.3621 40.863 26.6636 41.48 27.8147C41.5267 27.9028 41.5734 27.991 41.6252 28.074C41.6563 28.1258 41.6926 28.1828 41.7237 28.2347C42.6467 29.7747 44.0519 30.9932 45.7319 31.6777C44 32.4814 41.6304 32.611 39.4474 32.611C33.9667 32.611 30.5652 31.7088 30.5652 27.208C30.5652 23.2517 33.0645 17.0347 36.44 14.468H42.3874C43.1549 15.0332 43.9274 15.8473 44.6171 16.8014ZM37.6274 11.0873C37.7882 11.1858 37.9852 11.2117 38.1667 11.1495C38.3482 11.0925 38.4934 10.9577 38.5608 10.7814C38.8304 10.1177 39.1882 9.53691 39.4682 9.13247C39.7482 9.52136 40.0852 10.0762 40.3186 10.7502C40.3808 10.9369 40.5311 11.0821 40.7178 11.1495C40.9045 11.2117 41.1119 11.1858 41.2778 11.0769C42.1437 10.5117 43.0823 10.2473 43.7149 10.1228C43.5645 10.9162 43.2067 12.1658 42.3719 13.1717H36.5178C35.6934 12.1762 35.3304 10.9369 35.18 10.1436C35.823 10.2784 36.7615 10.5532 37.6274 11.0873Z" fill="black"/>
<path d="M35.776 28.5047C34.4226 28.2247 34.4226 27.9084 34.4226 27.141C34.4226 26.161 34.6767 24.8181 35.0967 23.5477C35.2108 23.2107 35.0293 22.8477 34.6923 22.7336C34.3501 22.6195 33.9923 22.8062 33.8782 23.1381C33.4115 24.5277 33.1367 26.0262 33.1367 27.1358C33.1367 28.261 33.3182 29.3032 35.5167 29.7595C35.5582 29.7699 35.6049 29.7751 35.6463 29.7751C35.9471 29.7751 36.2115 29.5677 36.2738 29.2618C36.3515 28.9144 36.1286 28.5773 35.776 28.5047ZM46.9138 26.1299C46.8152 26.0469 46.7167 26.0469 46.6493 26.0469C46.4782 26.0469 46.3226 26.1299 46.2397 26.2129L46.2138 26.2492C46.1982 26.2803 46.1826 26.3114 46.1671 26.3321C46.1204 26.4151 46.0738 26.4981 46.0738 26.6277C46.0738 26.7055 46.0738 26.8558 46.1619 26.9595C46.2189 27.0632 46.2812 27.1047 46.3278 27.1358C46.3434 27.1462 46.3589 27.1566 46.3745 27.1721L46.4056 27.1981C46.9552 27.4729 47.593 27.6336 48.4589 27.7166V28.3699C48.4589 28.4944 48.4589 28.5929 48.5315 28.6862C48.5782 28.821 48.7752 28.821 48.8426 28.821C48.9671 28.821 49.0656 28.821 49.1589 28.7484C49.2938 28.7018 49.2938 28.5047 49.2938 28.4373V27.841C49.7449 27.784 50.1234 27.7114 50.5071 27.5195C50.9478 27.2966 51.2071 27.0788 51.3938 26.7625C51.6115 26.3995 51.6686 26.0418 51.6063 25.4714C51.6063 25.0151 51.4819 24.6003 51.2589 24.2995C50.9945 23.9677 50.7197 23.7551 50.3723 23.6151C50.0301 23.4803 49.6567 23.3558 49.2315 23.2469V20.9655C49.7864 20.9758 50.2167 21.0536 50.5745 21.204C50.673 21.2869 50.7715 21.2869 50.8389 21.2869C51.0101 21.2869 51.1708 21.204 51.2538 21.121L51.2797 21.0899C51.2952 21.0588 51.3108 21.0329 51.3263 21.0069C51.373 20.924 51.4249 20.841 51.4249 20.7114C51.4249 20.4729 51.2745 20.2914 51.0204 20.2032C50.4656 19.9958 49.9056 19.887 49.3041 19.8766V19.2958C49.3041 19.1558 49.3041 19.0521 49.2004 18.9484C49.0967 18.8447 48.9308 18.8447 48.853 18.8447C48.7804 18.8447 48.6715 18.8447 48.5678 18.9484C48.4641 19.0521 48.4641 19.2181 48.4641 19.2958V19.8921C47.9663 19.9647 47.5412 20.0995 47.2404 20.281C46.9034 20.4832 46.6286 20.7581 46.4263 21.0951C46.2345 21.4114 46.1515 21.7484 46.1515 22.1892C46.1515 22.6195 46.2656 22.9825 46.4989 23.2988C46.7634 23.6307 47.0382 23.8432 47.3856 23.9832C47.6863 24.1025 48.1063 24.2269 48.5263 24.3462V26.4981C47.956 26.4773 47.4426 26.3581 46.9138 26.1299ZM48.3863 21.2455V23.2314C48.0078 23.1121 47.7641 22.9981 47.5619 22.8529L47.5412 22.8425C47.2819 22.7129 47.2249 22.4484 47.2249 22.2514C47.2249 21.9714 47.3338 21.7536 47.5619 21.5825C47.7538 21.4373 48.0493 21.3181 48.3863 21.2455ZM49.2886 26.6225V24.6781C49.6567 24.8025 49.973 24.9581 50.1752 25.0566C50.4138 25.2329 50.5071 25.3936 50.5071 25.5958C50.5123 26.2129 50.0663 26.5862 49.2886 26.6225Z" fill="black"/>
<defs>
<filter id="filter0_f_2763_3093" x="0.8" y="56.9885" width="72.3121" height="20.1393" filterUnits="userSpaceOnUse" color-interpolation-filters="sRGB">
<feFlood flood-opacity="0" result="BackgroundImageFix"/>
<feBlend mode="normal" in="SourceGraphic" in2="BackgroundImageFix" result="shape"/>
<feGaussianBlur stdDeviation="4.6" result="effect1_foregroundBlur_2763_3093"/>
</filter>
</defs>
</svg>
